<svg width="40" height="40" viewBox="0 0 40 40" fill="none" xmlns="http://www.w3.org/2000/svg">
<path d="M20 40C31.0457 40 40 31.0457 40 20C40 8.95431 31.0457 0 20 0C8.95431 0 0 8.95431 0 20C0 31.0457 8.95431 40 20 40Z" fill="#E0E0E0"/>
<path d="M21.5695 28V20.7111H24.1058L24.4866 17.8574H21.5695V16.0414C21.5695 15.2163 21.8051 14.6568 23.0248 14.6568H24.5705V12.1125C24.3027 12.0781 23.3798 12 22.3053 12C20.0626 12 18.5266 13.3253 18.5266 15.7601V17.8605H16V20.7142H18.5266V28H21.5695Z" fill="black" fill-opacity="0.87"/>
</svg>
